# xmcd
#
# Track frame offsets:
#	183
#	15510
#	27663
#	41038
#	58393
#	71370
#	84075
#	96108
#	108945
#	119370
#	135135
#	147420
#	159373
#	169115
#	182533
#
# Disc length: 2590
#
# Revision: 3
# Processed by: cddbd v1.5.1PL0 Copyright (c) Steve Scherf et al.
# Submitted via: CDex 1.51
# Normalized: r2:DSETVAR1,TDELIM( - )
#
DISCID=be0a1c0f
DTITLE=Various Artist - Lo Mejor Del Soul vol.3 CD1
DYEAR=1994
DGENRE=Soul
TTITLE0=MARTHA REEVES - I Say A Little Prayer
TTITLE1=JAMES BROWN - It´s A Man´s Man´s Man´s World
TTITLE2=SAM and DAVE - How Sweet It Is (To Be Loved By You)
TTITLE3=RIGHTEOUS BROTHERS - You´ve Lost That Lovin´ Feelin´
TTITLE4=THE DRIFTERS - On Broadway
TTITLE5=JACKIE WILSON - Doggin´ Arround
TTITLE6=BROOK BENTON - Kiddio
TTITLE7=BARBARA MASON - From His Woman To You
TTITLE8=BRENTON WOOD - Gimme Little Sign
TTITLE9=DOBIE GRAY - Drift Away
TTITLE10=MIGHTY SPARROW and BYRON LEE - Only A Fool (Breaks His Own Heart)
TTITLE11=NINA SIMONE - Don´t Let Me Be Misunderstood
TTITLE12=THE PLATTERS - Crying In The Chapel
TTITLE13=PERCY SLEDGE - I´ve Been Loving You To Long
TTITLE14=JOE TEX - A Woman (Can Change A Man)
EXTD=YEAR: 1994
EXTT0=
EXTT1=
EXTT2=
EXTT3=
EXTT4=
EXTT5=
EXTT6=
EXTT7=
EXTT8=
EXTT9=
EXTT10=
EXTT11=
EXTT12=
EXTT13=
EXTT14=
PLAYORDER=
